Director:
Roel Reiné
Writers:
Brendan Cowles (screenplay), Shane Kuhn (screenplay), and 1 more credit »
Stars:
Victor Webster, Billy Zane and Bostin Christopher 

Media info:


General
Unique ID                        : 172254535956247539310393664643355827765 (0x819704529B1E5ECBBB5FB50130D2DE35)
Complete name                    : E:\torrent2\The.Scorpion.King.3Battle.for.Redemption.2011.BluRayrip.mkv.1080p.DTS-5.1 ACB-Team\The.Scorpion.King.3Battle.for.Redemption.2011.BluRayrip.mkv.1080p.DTS-5.1 ACB-Team.mkv
Format                           : Matroska
Format version                   : Version 2
File size                        : 9.74 GiB
Duration                         : 1h 45mn
Overall bit rate mode            : Variable
Overall bit rate                 : 13.2 Mbps
Movie name                       : movie
Encoded date                     : UTC 2012-01-05 04:33:56
Writing application              : mkvmerge v3.2.0 ('Beginnings') built on Feb 12 2010 16:46:17
Writing library                  : libebml v0.7.9 + libmatroska v0.8.1

Video
ID                               : 1
Format                           : AVC
Format/Info                      : Advanced Video Codec
Format profile                   : High@L4.1
Format settings, CABAC           : Yes
Format settings, ReFrames        : 2 frames
Muxing mode                      : Container profile=Unknown@0.0
Codec ID                         : V_MPEG4/ISO/AVC
Duration                         : 1h 45mn
Bit rate mode                    : Variable
Bit rate                         : 11.9 Mbps
Maximum bit rate                 : 35.0 Mbps
Width                            : 1 920 pixels
Height                           : 1 080 pixels
Display aspect ratio             : 16:9
Frame rate                       : 23.976 fps
Color space                      : YUV
Chroma subsampling               : 4:2:0
Bit depth                        : 8 bits
Scan type                        : Progressive
Bits/(Pixel*Frame)               : 0.238
Stream size                      : 8.44 GiB (87%)
Writing library                  : x264 core 118 r2085 8a62835
Encoding settings                : cabac=1 / ref=1 / deblock=1:0:0 / analyse=0x3:0x3 / me=dia / subme=1 / psy=1 / psy_rd=1.00:0.00 / mixed_ref=0 / me_range=16 / chroma_me=1 / trellis=0 / 8x8dct=1 / cqm=0 / deadzone=21,11 / fast_pskip=1 / chroma_qp_offset=0 / threads=3 / sliced_threads=0 / slices=4 / nr=0 / decimate=1 / interlaced=0 / bluray_compat=1 / constrained_intra=0 / bframes=3 / b_pyramid=0 / b_adapt=1 / b_bias=0 / direct=1 / weightb=1 / open_gop=0 / weightp=1 / keyint=24 / keyint_min=1 / scenecut=40 / intra_refresh=0 / rc_lookahead=0 / rc=abr / mbtree=0 / bitrate=11851 / ratetol=1.0 / qcomp=0.60 / qpmin=0 / qpmax=69 / qpstep=4 / vbv_maxrate=35000 / vbv_bufsize=30000 / nal_hrd=vbr / ip_ratio=1.10 / pb_ratio=1.10 / aq=1:1.00
Default                          : No
Forced                           : No

Audio
ID                               : 2
Format                           : DTS
Format/Info                      : Digital Theater Systems
Codec ID                         : A_DTS
Duration                         : 1h 45mn
Bit rate mode                    : Constant
Bit rate                         : 1 510 Kbps
Channel(s)                       : 6 channels
Channel positions                : Front: L C R, Side: L R, LFE
Sampling rate                    : 48.0 KHz
Bit depth                        : 24 bits
Compression mode                 : Lossy
Stream size                      : 1.11 GiB (11%)
Language                         : English
Default                          : Yes
Forced                           : No

Text #1
ID                               : 3
Format                           : VobSub
Muxing mode                      : zlib
Codec ID                         : S_VOBSUB
Codec ID/Info                    : The same subtitle format used on DVDs
Language                         : English
Default                          : Yes
Forced                           : No

Text #2
ID                               : 4
Format                           : VobSub
Muxing mode                      : zlib
Codec ID                         : S_VOBSUB
Codec ID/Info                    : The same subtitle format used on DVDs
Language                         : Spanish
Default                          : No
Forced                           : No

Text #3
ID                               : 5
Format                           : VobSub
Muxing mode                      : zlib
Codec ID                         : S_VOBSUB
Codec ID/Info                    : The same subtitle format used on DVDs
Language                         : French
Default                          : No
Forced                           : No

Text #4
ID                               : 6
Format                           : UTF-8
Codec ID                         : S_TEXT/UTF8
Codec ID/Info                    : UTF-8 Plain Text
Language                         : Dutch
Default                          : No
Forced                           : No

Menu
00:00:00.000                     : en:00:00:00.000
00:04:16.047                     : en:00:04:16.047
00:09:50.715                     : en:00:09:50.715
00:15:55.496                     : en:00:15:55.496
00:19:36.633                     : en:00:19:36.633
00:26:54.571                     : en:00:26:54.571
00:30:37.001                     : en:00:30:37.001
00:35:37.260                     : en:00:35:37.260
00:44:20.491                     : en:00:44:20.491
00:51:39.596                     : en:00:51:39.596
00:55:06.136                     : en:00:55:06.136
01:00:44.349                     : en:01:00:44.349
01:05:55.618                     : en:01:05:55.618
01:10:29.683                     : en:01:10:29.683
01:16:04.393                     : en:01:16:04.393
01:19:18.587                     : en:01:19:18.587
01:23:32.966                     : en:01:23:32.966
01:27:55.812                     : en:01:27:55.812
01:34:24.075                     : en:01:34:24.075
01:40:24.476                     : en:01:40:24.476


